HIERARCHY
ROOT Hips
{
	OFFSET 0.000000 0.000000 0.000000 
	CHANNELS 6 Xposition Yposition Zposition Yrotation Zrotation Xrotation 
	JOINT Lumbar
	{
		OFFSET 0.000000 0.000000 0.000000 
		CHANNELS 3 Zrotation Xrotation Yrotation
		JOINT Neck
		{
			OFFSET 0.000000 0.445665 0.000000 
			CHANNELS 3 Zrotation Xrotation Yrotation
			End Site
			{
				OFFSET 0.000000 0.227535 0.000000 
			}
		}
		JOINT RightShoulder
		{
			OFFSET 0.019635 0.377685 0.194865 
			CHANNELS 3 Zrotation Xrotation Yrotation
			JOINT RightElbow
			{
				OFFSET 0.000000 -0.243375 0.000000 
				CHANNELS 2 Zrotation Yrotation
				JOINT RightWrist
				{
					OFFSET 0.000000 -0.264825 0.000000 
					CHANNELS 2 Zrotation Xrotation
					End Site
					{
						OFFSET 0.006600 -0.176220 0.000990 
					}
				}
			}
		}
		JOINT LeftShoulder
		{
			OFFSET 0.019635 0.377685 -0.194865 
			CHANNELS 3 Zrotation Xrotation Yrotation
			JOINT LeftElbow
			{
				OFFSET 0.000000 -0.243375 0.000000 
				CHANNELS 2 Zrotation Yrotation
				JOINT LeftWrist
				{
					OFFSET 0.000000 -0.264825 0.000000 
					CHANNELS 2 Zrotation Xrotation
					End Site
					{
						OFFSET 0.006600 -0.176220 -0.000990 
					}
				}
			}
		}
	}
	JOINT RightHip
	{
		OFFSET 0.052140 -0.069960 0.075570 
		CHANNELS 3 Zrotation Xrotation Yrotation
		JOINT RightKnee
		{
			OFFSET 0.000000 -0.402270 0.000000 
			CHANNELS 1 Zrotation
			JOINT RightAnkle
			{
				OFFSET 0.000000 -0.404085 0.000000 
				CHANNELS 3 Zrotation Xrotation Yrotation
				End Site
				{
					OFFSET 0.204105 -0.089430 0.008415 
				}
			}
		}
	}
	JOINT LeftHip
	{
		OFFSET 0.052140 -0.069960 -0.075570 
		CHANNELS 3 Zrotation Xrotation Yrotation
		JOINT LeftKnee
		{
			OFFSET 0.000000 -0.402270 0.000000 
			CHANNELS 1 Zrotation
			JOINT LeftAnkle
			{
				OFFSET 0.000000 -0.404085 0.000000 
				CHANNELS 3 Zrotation Xrotation Yrotation
				End Site
				{
					OFFSET 0.204105 -0.089430 -0.008415 
				}
			}
		}
	}
}
MOTION
Frames: 20
Frame Time: 0.02
-0.00092 -0 0.00037 32.10212 -32.21145 -5.39669 49.39493 1.57817 -6.94528 11.2525 -2.3525 -0.40343 4.56605 -15.25539 7.61316 41.91387 91.02124 5.19314 0.51541 7.98621 11.50876 -6.87849 46.63716 -93.8519 6.195 -1.19794 45.86769 0.34745 0.2815 -19.49322 -6.2313 -4.07558 -2.77985 49.50263 3.93442 -1.50748 -24.45111 -6.38422 2.84715 2.11971
-0.0005 -1e-05 0.00072 32.07209 -32.13722 -5.38242 49.40447 1.61041 -6.71996 10.89296 -2.30007 -0.40409 3.17951 -15.02298 6.83851 41.36756 90.97774 5.10975 0.5501 6.33454 11.58721 -6.43448 46.56477 -94.24198 6.41256 -1.22468 45.78015 0.27675 -0.26926 -19.5059 -6.21332 -4.00825 -2.73759 49.40055 3.99648 -1.32999 -24.44753 -6.38601 2.83657 2.11188
-9e-05 -2e-05 0.00106 32.04224 -32.06312 -5.3682 49.41395 1.64261 -6.49527 10.53398 -2.24774 -0.40479 1.7952 -14.79101 6.06495 40.82182 90.93433 5.02649 0.58476 4.68489 11.66565 -5.99127 46.49236 -94.63168 6.62991 -1.25138 45.69275 0.20628 -0.81851 -19.51857 -6.19538 -3.9411 -2.69545 49.29865 4.05839 -1.15302 -24.44396 -6.3878 2.82602 2.10408
0.00032 -3e-05 0.00141 32.01232 -31.98911 -5.35397 49.42346 1.67476 -6.27063 10.17546 -2.19547 -0.40546 0.41261 -14.55927 5.29247 40.277 90.89094 4.94333 0.61936 3.03783 11.7439 -5.54851 46.42016 -95.02067 6.84685 -1.27804 45.60545 0.1358 -1.36763 -19.53123 -6.17745 -3.87397 -2.65332 49.19687 4.12026 -0.97607 -24.4404 -6.38959 2.81546 2.09628
0.00074 -4e-05 0.00176 31.98221 -31.91501 -5.33969 49.43304 1.70695 -6.0454 9.8166 -2.14314 -0.40607 -0.97146 -14.32721 4.51941 39.73206 90.84753 4.86011 0.65396 1.38984 11.82209 -5.1052 46.34804 -95.40979 7.06388 -1.30473 45.51808 0.06511 -1.91812 -19.54389 -6.15947 -3.80669 -2.61108 49.09495 4.18227 -0.79859 -24.43682 -6.39137 2.80487 2.08845
0.00115 -5e-05 0.00211 31.95292 -31.8409 -5.32561 49.44231 1.73916 -5.82186 9.45737 -2.09082 -0.40696 -2.35621 -14.09543 3.74488 39.18472 90.80417 4.7768 0.68874 -0.26323 11.90103 -4.66227 46.27504 -95.80073 7.28191 -1.33145 45.43062 -0.00488 -2.4647 -19.55656 -6.14162 -3.73983 -2.56915 48.99311 4.24394 -0.62269 -24.43326 -6.39317 2.7944 2.0807
0.00156 -6e-05 0.00246 31.92199 -31.76691 -5.31113 49.45221 1.77129 -5.59514 9.09929 -2.03851 -0.4073 -3.73794 -13.86333 2.97413 38.64271 90.76061 4.6937 0.72312 -1.90406 11.97837 -4.21892 46.20392 -96.18738 7.49754 -1.35808 45.34342 -0.07624 -3.01869 -19.56922 -6.12353 -3.67218 -2.52663 48.89121 4.30622 -0.44387 -24.42968 -6.39494 2.78371 2.07281
0.00197 -7e-05 0.0028 31.89261 -31.69281 -5.29702 49.46151 1.8035 -5.37139 8.74012 -1.98623 -0.40813 -5.1227 -13.63157 2.19994 38.09597 90.71747 4.61053 0.75787 -3.55652 12.05722 -3.77624 46.13103 -96.57836 7.71566 -1.3848 45.25599 -0.14628 -3.56557 -19.58188 -6.10567 -3.6053 -2.48468 48.78939 4.36797 -0.26763 -24.42611 -6.39674 2.77321 2.06504
0.00238 -8e-05 0.00315 31.86497 -31.61852 -5.28336 49.47012 1.8358 -5.15104 8.37949 -1.9338 -0.4096 -6.51113 -13.39987 1.42078 37.54227 90.6739 4.52671 0.79309 -5.22308 12.13785 -3.33299 46.05602 -96.97346 7.93592 -1.41159 45.16817 -0.21497 -4.10514 -19.59459 -6.08802 -3.53913 -2.44331 48.68752 4.42898 -0.09492 -24.42257 -6.39857 2.76299 2.05745
0.00281 -9e-05 0.0035 31.82684 -31.54513 -5.26711 49.48286 1.86755 -4.91043 8.02686 -1.88166 -0.40753 -7.87842 -13.16675 0.6679 37.02504 90.62997 4.44494 0.82567 -6.80827 12.20802 -2.8888 45.99335 -97.34134 8.14116 -1.43787 45.08228 -0.29221 -4.69092 -19.60714 -6.06898 -3.46817 -2.39825 48.58549 4.49398 0.09698 -24.41893 -6.40021 2.7513 2.04892
0.0032 -0.0001 0.00384 31.81114 -31.46998 -5.25634 49.48676 1.90051 -4.71303 7.65771 -1.82929 -0.41283 -9.29 -12.93738 -0.13876 36.43332 90.58861 4.35992 0.86375 -8.56482 12.30039 -2.44936 45.90457 -97.76879 8.37972 -1.46529 44.99254 -0.35092 -5.17649 -19.61994 -6.05299 -3.40777 -2.36121 48.48409 4.55071 0.24912 -24.41545 -6.40227 2.74262 2.04232
0.00352 -0.00011 0.00415 31.85533 -31.38884 -5.26069 49.4671 1.9363 -4.631 7.23975 -1.77319 -0.43924 -10.8273 -12.71212 -1.10817 35.61459 90.5402 4.2575 0.91795 -10.79905 12.45111 -1.99437 45.74411 -98.35075 8.69985 -1.49633 44.89018 -0.36257 -5.40808 -19.63409 -6.04444 -3.37289 -2.34444 48.38206 4.58328 0.28452 -24.41287 -6.40523 2.74293 2.04148
0.0038 -0.00013 0.00444 31.92244 -31.30612 -5.27056 49.43835 1.97342 -4.59272 6.80598 -1.71747 -0.47289 -12.40767 -12.49197 -2.1284 34.72532 90.49742 4.15364 0.97753 -13.20288 12.62303 -1.54553 45.55749 -98.99874 9.05686 -1.52913 44.78432 -0.35504 -5.53595 -19.64836 -6.03911 -3.34919 -2.33601 48.28111 4.60775 0.28105 -24.41036 -6.40867 2.74613 2.0425
0.00409 -0.00014 0.00474 31.98002 -31.22493 -5.27785 49.4134 2.01023 -4.53683 6.38155 -1.66359 -0.50263 -13.96648 -12.27321 -3.11595 33.88295 90.46073 4.05566 1.03398 -15.52571 12.78896 -1.11748 45.38274 -99.61659 9.40141 -1.55991 44.68145 -0.35366 -5.69656 -19.66215 -6.03294 -3.32276 -2.32496 48.18119 4.63699 0.30082 -24.40757 -6.41205 2.74752 2.04237
0.00441 -0.00017 0.00502 32.03355 -31.14046 -5.28541 49.39015 2.04571 -4.47242 5.94744 -1.60112 -0.53496 -15.53651 -12.03789 -4.14564 32.9774 90.38575 3.93458 1.09323 -17.87011 12.94609 -0.6059 45.20772 -100.21643 9.72134 -1.59297 44.57273 -0.36258 -5.91449 -19.67775 -6.02422 -3.28673 -2.30916 48.07479 4.66193 0.29849 -24.40592 -6.41471 2.75101 2.0435
0.00466 -0.00017 0.00535 32.10142 -31.06227 -5.29376 49.36079 2.08438 -4.43486 5.53045 -1.55674 -0.56363 -17.08995 -11.8394 -5.09766 32.1872 90.39409 3.86255 1.14807 -20.20396 13.11837 -0.24965 45.02747 -100.89285 10.10949 -1.62529 44.47527 -0.34612 -5.99252 -19.68958 -6.02151 -3.27294 -2.30501 47.98222 4.69352 0.3311 -24.40182 -6.41902 2.75083 2.04247
0.00473 -0.00014 0.00584 32.19952 -31.00324 -5.3025 49.31992 2.13067 -4.47076 5.1596 -1.56133 -0.58029 -18.61341 -11.73186 -5.84387 31.72951 90.62084 3.91811 1.18929 -22.51454 13.40541 -0.50714 44.83603 -101.54688 10.60097 -1.62187 44.41077 -0.25901 -5.67482 -19.6911 -6.0353 -3.32153 -2.33301 47.92744 4.74848 0.48504 -24.39171 -6.42749 2.73986 2.03485
0.00472 -9e-05 0.00639 32.31229 -30.9503 -5.31198 49.27226 2.18031 -4.52968 4.80805 -1.58424 -0.59304 -20.11179 -11.66302 -6.50945 31.39128 90.93917 4.02639 1.22675 -24.79861 13.69785 -0.89568 44.64111 -102.30428 11.16998 -1.62208 44.35761 -0.1479 -5.22625 -19.68872 -6.05496 -3.3915 -2.37212 47.88682 4.8097 0.67199 -24.37908 -6.43769 2.72517 2.02506
0.00473 -5e-05 0.00692 32.42041 -30.89367 -5.32134 49.22612 2.22896 -4.57224 4.45024 -1.59937 -0.60769 -21.60686 -11.58264 -7.19398 31.00011 91.21472 4.11363 1.26493 -27.06509 13.92968 -1.08963 44.44953 -103.17237 11.75848 -1.64475 44.29848 -0.05137 -4.86072 -19.68809 -6.07143 -3.44915 -2.40475 47.83955 4.86624 0.83461 -24.367 -6.44721 2.71209 2.01631
0.0048 -0 0.00741 32.51947 -30.84094 -5.32976 49.18779 2.2753 -4.64372 4.07895 -1.61233 -0.62208 -23.17359 -11.47674 -7.9417 30.59948 91.47073 4.18115 1.30402 -29.46721 14.38535 -1.81387 44.24848 -103.42655 12.13387 -1.57306 44.2423 0.06092 -4.39286 -19.68778 -6.09003 -3.51782 -2.44353 47.79228 4.9308 1.0379 -24.35709 -6.4561 2.69916 2.00722
